solid component1:mould
  facet normal 0.000000e+00 0.000000e+00 1.000000e+00
    outer loop
      vertex 2.100000e+01 1.700000e+01 4.000000e+00
      vertex 1.600000e+01 1.200000e+01 4.000000e+00
      vertex 2.100000e+01 -1.700000e+01 4.000000e+00
    endloop
  endfacet
  facet normal 0.000000e+00 0.000000e+00 1.000000e+00
    outer loop
      vertex -2.100000e+01 1.700000e+01 4.000000e+00
      vertex 1.600000e+01 1.200000e+01 4.000000e+00
      vertex 2.100000e+01 1.700000e+01 4.000000e+00
    endloop
  endfacet
  facet normal 0.000000e+00 0.000000e+00 1.000000e+00
    outer loop
      vertex -2.100000e+01 1.700000e+01 4.000000e+00
      vertex -1.600000e+01 1.200000e+01 4.000000e+00
      vertex 1.600000e+01 1.200000e+01 4.000000e+00
    endloop
  endfacet
  facet normal 0.000000e+00 0.000000e+00 1.000000e+00
    outer loop
      vertex -2.100000e+01 -1.700000e+01 4.000000e+00
      vertex -1.600000e+01 1.200000e+01 4.000000e+00
      vertex -2.100000e+01 1.700000e+01 4.000000e+00
    endloop
  endfacet
  facet normal 0.000000e+00 0.000000e+00 1.000000e+00
    outer loop
      vertex -2.100000e+01 -1.700000e+01 4.000000e+00
      vertex -1.600000e+01 -1.200000e+01 4.000000e+00
      vertex -1.600000e+01 1.200000e+01 4.000000e+00
    endloop
  endfacet
  facet normal 0.000000e+00 0.000000e+00 1.000000e+00
    outer loop
      vertex 2.100000e+01 -1.700000e+01 4.000000e+00
      vertex -1.600000e+01 -1.200000e+01 4.000000e+00
      vertex -2.100000e+01 -1.700000e+01 4.000000e+00
    endloop
  endfacet
  facet normal 0.000000e+00 0.000000e+00 1.000000e+00
    outer loop
      vertex 2.100000e+01 -1.700000e+01 4.000000e+00
      vertex 1.600000e+01 -1.200000e+01 4.000000e+00
      vertex -1.600000e+01 -1.200000e+01 4.000000e+00
    endloop
  endfacet
  facet normal 0.000000e+00 0.000000e+00 1.000000e+00
    outer loop
      vertex 1.600000e+01 1.200000e+01 4.000000e+00
      vertex 1.600000e+01 -1.200000e+01 4.000000e+00
      vertex 2.100000e+01 -1.700000e+01 4.000000e+00
    endloop
  endfacet
  facet normal 1.000000e+00 -0.000000e+00 -0.000000e+00
    outer loop
      vertex 2.100000e+01 -1.700000e+01 4.000000e+00
      vertex 2.100000e+01 -1.700000e+01 -5.000000e+00
      vertex 2.100000e+01 1.700000e+01 -5.000000e+00
    endloop
  endfacet
  facet normal 1.000000e+00 -0.000000e+00 -0.000000e+00
    outer loop
      vertex 2.100000e+01 -1.700000e+01 4.000000e+00
      vertex 2.100000e+01 1.700000e+01 -5.000000e+00
      vertex 2.100000e+01 1.700000e+01 4.000000e+00
    endloop
  endfacet
  facet normal -0.000000e+00 1.000000e+00 -0.000000e+00
    outer loop
      vertex 2.100000e+01 1.700000e+01 4.000000e+00
      vertex 2.100000e+01 1.700000e+01 -5.000000e+00
      vertex -2.100000e+01 1.700000e+01 -5.000000e+00
    endloop
  endfacet
  facet normal -0.000000e+00 1.000000e+00 -0.000000e+00
    outer loop
      vertex 2.100000e+01 1.700000e+01 4.000000e+00
      vertex -2.100000e+01 1.700000e+01 -5.000000e+00
      vertex -2.100000e+01 1.700000e+01 4.000000e+00
    endloop
  endfacet
  facet normal -1.000000e+00 -0.000000e+00 -0.000000e+00
    outer loop
      vertex -2.100000e+01 1.700000e+01 4.000000e+00
      vertex -2.100000e+01 1.700000e+01 -5.000000e+00
      vertex -2.100000e+01 -1.700000e+01 -5.000000e+00
    endloop
  endfacet
  facet normal -1.000000e+00 -0.000000e+00 -0.000000e+00
    outer loop
      vertex -2.100000e+01 1.700000e+01 4.000000e+00
      vertex -2.100000e+01 -1.700000e+01 -5.000000e+00
      vertex -2.100000e+01 -1.700000e+01 4.000000e+00
    endloop
  endfacet
  facet normal -0.000000e+00 -1.000000e+00 -0.000000e+00
    outer loop
      vertex -2.100000e+01 -1.700000e+01 4.000000e+00
      vertex -2.100000e+01 -1.700000e+01 -5.000000e+00
      vertex 2.100000e+01 -1.700000e+01 -5.000000e+00
    endloop
  endfacet
  facet normal -0.000000e+00 -1.000000e+00 -0.000000e+00
    outer loop
      vertex -2.100000e+01 -1.700000e+01 4.000000e+00
      vertex 2.100000e+01 -1.700000e+01 -5.000000e+00
      vertex 2.100000e+01 -1.700000e+01 4.000000e+00
    endloop
  endfacet
  facet normal -0.000000e+00 -0.000000e+00 -1.000000e+00
    outer loop
      vertex 2.100000e+01 1.700000e+01 -5.000000e+00
      vertex 2.100000e+01 -1.700000e+01 -5.000000e+00
      vertex -2.100000e+01 -1.700000e+01 -5.000000e+00
    endloop
  endfacet
  facet normal -0.000000e+00 -0.000000e+00 -1.000000e+00
    outer loop
      vertex 2.100000e+01 1.700000e+01 -5.000000e+00
      vertex -2.100000e+01 -1.700000e+01 -5.000000e+00
      vertex -2.100000e+01 1.700000e+01 -5.000000e+00
    endloop
  endfacet
  facet normal -1.000000e+00 0.000000e+00 0.000000e+00
    outer loop
      vertex 1.600000e+01 -1.200000e+01 0.000000e+00
      vertex 1.600000e+01 -1.200000e+01 4.000000e+00
      vertex 1.600000e+01 1.200000e+01 4.000000e+00
    endloop
  endfacet
  facet normal -1.000000e+00 0.000000e+00 0.000000e+00
    outer loop
      vertex 1.600000e+01 -1.200000e+01 0.000000e+00
      vertex 1.600000e+01 1.200000e+01 4.000000e+00
      vertex 1.600000e+01 1.200000e+01 0.000000e+00
    endloop
  endfacet
  facet normal 0.000000e+00 -1.000000e+00 0.000000e+00
    outer loop
      vertex 1.600000e+01 1.200000e+01 0.000000e+00
      vertex 1.600000e+01 1.200000e+01 4.000000e+00
      vertex -1.600000e+01 1.200000e+01 4.000000e+00
    endloop
  endfacet
  facet normal 0.000000e+00 -1.000000e+00 0.000000e+00
    outer loop
      vertex 1.600000e+01 1.200000e+01 0.000000e+00
      vertex -1.600000e+01 1.200000e+01 4.000000e+00
      vertex -1.600000e+01 1.200000e+01 0.000000e+00
    endloop
  endfacet
  facet normal 1.000000e+00 0.000000e+00 0.000000e+00
    outer loop
      vertex -1.600000e+01 1.200000e+01 0.000000e+00
      vertex -1.600000e+01 1.200000e+01 4.000000e+00
      vertex -1.600000e+01 -1.200000e+01 4.000000e+00
    endloop
  endfacet
  facet normal 1.000000e+00 0.000000e+00 0.000000e+00
    outer loop
      vertex -1.600000e+01 1.200000e+01 0.000000e+00
      vertex -1.600000e+01 -1.200000e+01 4.000000e+00
      vertex -1.600000e+01 -1.200000e+01 0.000000e+00
    endloop
  endfacet
  facet normal 0.000000e+00 1.000000e+00 0.000000e+00
    outer loop
      vertex -1.600000e+01 -1.200000e+01 0.000000e+00
      vertex -1.600000e+01 -1.200000e+01 4.000000e+00
      vertex 1.600000e+01 -1.200000e+01 4.000000e+00
    endloop
  endfacet
  facet normal 0.000000e+00 1.000000e+00 0.000000e+00
    outer loop
      vertex -1.600000e+01 -1.200000e+01 0.000000e+00
      vertex 1.600000e+01 -1.200000e+01 4.000000e+00
      vertex 1.600000e+01 -1.200000e+01 0.000000e+00
    endloop
  endfacet
  facet normal 0.000000e+00 0.000000e+00 1.000000e+00
    outer loop
      vertex 1.600000e+01 -1.200000e+01 0.000000e+00
      vertex 1.600000e+01 1.200000e+01 0.000000e+00
      vertex -1.600000e+01 1.200000e+01 0.000000e+00
    endloop
  endfacet
  facet normal 0.000000e+00 0.000000e+00 1.000000e+00
    outer loop
      vertex 1.600000e+01 -1.200000e+01 0.000000e+00
      vertex -1.600000e+01 1.200000e+01 0.000000e+00
      vertex -1.600000e+01 -1.200000e+01 0.000000e+00
    endloop
  endfacet
endsolid component1:mould
