  0
SECTION
  2
HEADER
  9
$ACADVER
  1
AC1009
  0
ENDSEC
  0
SECTION
  2
ENTITIES
  0
POLYLINE
  8
FR-4 (LOSS FREE)
 66
1
 39
0
 10
0.000000
 20
0.000000
 30
0.000000
 70
1
  0
VERTEX
  8
FR-4 (LOSS FREE)
 39
0
 10
16.000000
 20
-12.000000
 30
0.000000
 70
0
 42
0
  0
VERTEX
  8
FR-4 (LOSS FREE)
 39
0
 10
16.000000
 20
12.000000
 30
0.000000
 70
0
 42
0
  0
VERTEX
  8
FR-4 (LOSS FREE)
 39
0
 10
16.000000
 20
12.000000
 30
0.000000
 70
0
 42
0
  0
VERTEX
  8
FR-4 (LOSS FREE)
 39
0
 10
-16.000000
 20
12.000000
 30
0.000000
 70
0
 42
0
  0
VERTEX
  8
FR-4 (LOSS FREE)
 39
0
 10
-16.000000
 20
12.000000
 30
0.000000
 70
0
 42
0
  0
VERTEX
  8
FR-4 (LOSS FREE)
 39
0
 10
-16.000000
 20
-12.000000
 30
0.000000
 70
0
 42
0
  0
VERTEX
  8
FR-4 (LOSS FREE)
 39
0
 10
-16.000000
 20
-12.000000
 30
0.000000
 70
0
 42
0
  0
VERTEX
  8
FR-4 (LOSS FREE)
 39
0
 10
16.000000
 20
-12.000000
 30
0.000000
 70
0
 42
0
  0
SEQEND
  8
FR-4 (LOSS FREE)
  0
ENDSEC
  0
EOF
