  0
SECTION
  2
HEADER
  9
$ACADVER
  1
AC1009
  0
ENDSEC
  0
SECTION
  2
ENTITIES
  0
POLYLINE
  8
PEC
 66
1
 39
0
 10
0.000000
 20
0.000000
 30
0.000000
 70
1
  0
VERTEX
  8
PEC
 39
0
 10
17.520000
 20
1.935000
 30
0.000000
 70
0
 42
0
  0
VERTEX
  8
PEC
 39
0
 10
17.520000
 20
10.645000
 30
0.000000
 70
0
 42
0
  0
VERTEX
  8
PEC
 39
0
 10
17.520000
 20
10.645000
 30
0.000000
 70
0
 42
0
  0
VERTEX
  8
PEC
 39
0
 10
7.500000
 20
10.645000
 30
0.000000
 70
0
 42
0
  0
VERTEX
  8
PEC
 39
0
 10
7.500000
 20
10.645000
 30
0.000000
 70
0
 42
0
  0
VERTEX
  8
PEC
 39
0
 10
7.500000
 20
1.935000
 30
0.000000
 70
0
 42
0
  0
VERTEX
  8
PEC
 39
0
 10
7.500000
 20
1.935000
 30
0.000000
 70
0
 42
0
  0
VERTEX
  8
PEC
 39
0
 10
17.520000
 20
1.935000
 30
0.000000
 70
0
 42
0
  0
SEQEND
  8
PEC
  0
POLYLINE
  8
PEC
 66
1
 39
0
 10
0.000000
 20
0.000000
 30
0.000000
 70
1
  0
VERTEX
  8
PEC
 39
0
 10
17.520000
 20
-1.935000
 30
0.000000
 70
0
 42
0
  0
VERTEX
  8
PEC
 39
0
 10
7.500000
 20
-1.935000
 30
0.000000
 70
0
 42
0
  0
VERTEX
  8
PEC
 39
0
 10
7.500000
 20
-1.935000
 30
0.000000
 70
0
 42
0
  0
VERTEX
  8
PEC
 39
0
 10
7.500000
 20
-10.645000
 30
0.000000
 70
0
 42
0
  0
VERTEX
  8
PEC
 39
0
 10
7.500000
 20
-10.645000
 30
0.000000
 70
0
 42
0
  0
VERTEX
  8
PEC
 39
0
 10
17.520000
 20
-10.645000
 30
0.000000
 70
0
 42
0
  0
VERTEX
  8
PEC
 39
0
 10
17.520000
 20
-10.645000
 30
0.000000
 70
0
 42
0
  0
VERTEX
  8
PEC
 39
0
 10
17.520000
 20
-1.935000
 30
0.000000
 70
0
 42
0
  0
SEQEND
  8
PEC
  0
POLYLINE
  8
PEC
 66
1
 39
0
 10
0.000000
 20
0.000000
 30
0.000000
 70
1
  0
VERTEX
  8
PEC
 39
0
 10
6.896503
 20
1.435000
 30
0.000000
 70
0
 42
0.930474
  0
VERTEX
  8
PEC
 39
0
 10
-13.000000
 20
-0.000000
 30
0.000000
 70
0
 42
0.930474
  0
VERTEX
  8
PEC
 39
0
 10
6.896503
 20
-1.435000
 30
0.000000
 70
0
 42
0
  0
VERTEX
  8
PEC
 39
0
 10
17.520000
 20
-1.435000
 30
0.000000
 70
0
 42
0
  0
VERTEX
  8
PEC
 39
0
 10
17.520000
 20
-1.435000
 30
0.000000
 70
0
 42
0
  0
VERTEX
  8
PEC
 39
0
 10
17.520000
 20
1.435000
 30
0.000000
 70
0
 42
0
  0
VERTEX
  8
PEC
 39
0
 10
17.520000
 20
1.435000
 30
0.000000
 70
0
 42
0
  0
VERTEX
  8
PEC
 39
0
 10
6.896503
 20
1.435000
 30
0.000000
 70
0
 42
0
  0
SEQEND
  8
PEC
  0
CIRCLE
  8
PEC
 39
0
 10
0.000000
 20
0.000000
 30
0.000000
 40
5.55
  0
CIRCLE
  8
PEC
 39
0
 10
0.000000
 20
0.000000
 30
0.000000
 40
5.05
  0
ENDSEC
  0
EOF
